<svg width="28" height="22" viewBox="0 0 28 22" fill="none" xmlns="http://www.w3.org/2000/svg">
<path d="M24.12 2.94583C21.696 0.99783 17.863 0.66783 17.701 0.65383C17.445 0.63183 17.202 0.77683 17.097 1.01083C17.093 1.01883 16.879 1.63983 16.672 2.23883C19.489 2.73183 21.403 3.82583 21.505 3.88583C21.983 4.16383 22.143 4.77683 21.864 5.25383C21.679 5.57183 21.344 5.74983 21 5.74983C20.829 5.74983 20.657 5.70683 20.499 5.61483C20.471 5.59783 17.663 3.99983 14.002 3.99983C10.34 3.99983 7.531 5.59883 7.503 5.61483C7.026 5.89183 6.414 5.72883 6.137 5.25083C5.86 4.77483 6.021 4.16383 6.497 3.88583C6.599 3.82583 8.52 2.72783 11.345 2.23583C11.127 1.62983 10.907 1.01883 10.903 1.01083C10.798 0.77583 10.555 0.62783 10.299 0.65383C10.137 0.66683 6.304 0.99683 3.848 2.97183C2.564 4.15783 0 11.0918 0 17.0868C0 17.1928 0.027 17.2958 0.08 17.3878C1.851 20.4978 6.679 21.3118 7.779 21.3468C7.786 21.3478 7.792 21.3478 7.798 21.3478C7.992 21.3478 8.175 21.2548 8.29 21.0978L9.48 19.4858C6.87 18.8568 5.49 17.8678 5.407 17.8068C4.963 17.4798 4.867 16.8538 5.194 16.4088C5.52 15.9658 6.144 15.8678 6.588 16.1928C6.625 16.2168 9.172 17.9998 14 17.9998C18.847 17.9998 21.387 16.2098 21.412 16.1918C21.856 15.8698 22.482 15.9668 22.807 16.4128C23.131 16.8568 23.037 17.4788 22.595 17.8048C22.512 17.8658 21.139 18.8528 18.535 19.4818L19.71 21.0968C19.825 21.2548 20.008 21.3468 20.202 21.3468C20.209 21.3468 20.215 21.3468 20.221 21.3458C21.322 21.3108 26.15 20.4968 27.92 17.3868C27.973 17.2948 28 17.1918 28 17.0858C28 11.0918 25.436 4.15783 24.12 2.94583ZM10 14.9998C8.895 14.9998 8 13.8808 8 12.4998C8 11.1188 8.895 9.99983 10 9.99983C11.105 9.99983 12 11.1188 12 12.4998C12 13.8808 11.105 14.9998 10 14.9998ZM18 14.9998C16.895 14.9998 16 13.8808 16 12.4998C16 11.1188 16.895 9.99983 18 9.99983C19.105 9.99983 20 11.1188 20 12.4998C20 13.8808 19.105 14.9998 18 14.9998Z" fill="white"/>
</svg>
