<svg width="23" height="19" viewBox="0 0 23 19" fill="none" xmlns="http://www.w3.org/2000/svg">
<path d="M23 2.24931C22.154 2.63063 21.244 2.88854 20.2896 3.00373C21.264 2.41028 22.0118 1.47128 22.3648 0.35056C21.453 0.900367 20.4427 1.29922 19.3683 1.51421C18.5075 0.58236 17.2811 0 15.9231 0C13.3176 0 11.2044 2.14808 11.2044 4.79659C11.2044 5.17255 11.2463 5.53849 11.3272 5.88977C7.40555 5.68981 3.92835 3.78033 1.60083 0.877473C1.19473 1.58575 0.961764 2.41028 0.961764 3.28918C0.961764 4.95291 1.79543 6.42169 3.06089 7.28163C2.28775 7.25695 1.55966 7.04125 0.923758 6.68103C0.923406 6.70142 0.923406 6.72181 0.923406 6.74184C0.923406 9.06591 2.55063 11.0044 4.70888 11.4447C4.31334 11.5549 3.89562 11.6132 3.46594 11.6132C3.16119 11.6132 2.86594 11.5835 2.57808 11.5277C3.17843 13.4329 4.92073 14.8198 6.98608 14.8587C5.37082 16.1454 3.33644 16.912 1.12505 16.912C0.744989 16.912 0.368448 16.8895 0 16.8448C2.08717 18.2062 4.56812 19 7.23276 19C15.9122 19 20.6588 11.6912 20.6588 5.35212C20.6588 5.14429 20.6542 4.93717 20.645 4.73185C21.5677 4.05577 22.3676 3.2112 23 2.24931Z" fill="#F1F2F2"/>
</svg>
